<?xml version="1.0" standalone="no"?>
<!DOCTYPE svg PUBLIC "-//W3C//DTD SVG 20010904//EN"
 "http://www.w3.org/TR/2001/REC-SVG-20010904/DTD/svg10.dtd">
<svg version="1.0" xmlns="http://www.w3.org/2000/svg"
 width="493.000000pt" height="493.000000pt" viewBox="0 0 493.000000 493.000000"
 preserveAspectRatio="xMidYMid meet">
<metadata>
Created by potrace 1.14, written by Peter Selinger 2001-2017
</metadata>
<g transform="translate(0.000000,493.000000) scale(0.100000,-0.100000)"
fill="#000000" stroke="none">
<path d="M434 2904 c-64 -32 -64 -29 -64 -478 l0 -406 23 0 c30 0 64 25 82 60
12 24 15 86 15 358 0 298 2 330 17 336 16 6 203 -108 203 -124 0 -4 -7 -13
-16 -21 -33 -27 -67 -113 -72 -180 -8 -118 45 -223 148 -289 l51 -32 54 36
c99 65 153 178 142 295 -5 58 -42 146 -71 170 -9 8 -16 17 -16 21 0 16 187
130 203 124 15 -6 17 -38 17 -336 0 -272 3 -334 15 -358 18 -35 52 -60 82 -60
l23 0 0 406 c0 365 -2 409 -17 435 -17 29 -67 59 -97 59 -32 0 -92 -32 -213
-112 l-123 -81 -124 82 c-174 114 -203 125 -262 95z m418 -351 c15 -16 32 -41
37 -56 26 -68 4 -164 -48 -211 -21 -19 -21 -19 -42 0 -52 47 -74 143 -48 211
10 27 56 83 69 83 3 0 18 -12 32 -27z"/>
<path d="M3043 2896 c-36 -17 -60 -38 -80 -67 l-28 -43 -3 -383 -3 -383 23 0
c31 0 65 24 83 60 12 24 15 85 15 348 0 300 1 321 19 343 18 23 25 24 174 27
170 4 212 -5 242 -52 26 -40 29 -96 7 -136 -26 -49 -72 -70 -155 -70 -79 0
-120 -17 -142 -60 -31 -59 -29 -60 128 -60 123 0 146 -3 174 -20 42 -25 63
-68 63 -129 0 -42 -5 -56 -31 -85 -38 -44 -79 -56 -191 -56 -82 0 -90 -2 -117
-27 -17 -16 -33 -40 -37 -55 l-6 -28 156 0 c146 0 160 2 204 24 47 24 90 64
110 101 8 15 6 29 -10 58 -26 51 -34 134 -19 194 12 47 12 48 -19 76 l-32 29
28 51 c74 133 5 309 -137 351 -38 12 -96 16 -208 16 -144 0 -160 -2 -208 -24z"/>
<path d="M1332 2443 c3 -193 4 -199 31 -255 30 -61 74 -105 140 -140 61 -33
203 -33 264 0 60 32 112 86 142 151 22 48 26 73 29 174 2 64 6 117 9 117 2 0
95 -84 206 -187 111 -103 225 -209 254 -235 45 -42 57 -48 95 -48 45 0 78 19
97 57 11 22 17 563 6 563 -18 0 -73 -31 -90 -50 -18 -20 -20 -40 -25 -228 l-5
-205 -245 227 c-135 125 -260 234 -278 242 -45 20 -97 3 -123 -40 -16 -26 -19
-51 -19 -166 0 -156 -13 -199 -76 -246 -33 -26 -46 -29 -109 -29 -63 0 -76 3
-109 29 -62 47 -76 90 -76 239 0 148 -12 186 -65 211 -18 9 -38 16 -45 16 -8
0 -11 -51 -8 -197z"/>
<path d="M3880 2631 c-95 -19 -182 -88 -223 -180 -31 -67 -30 -188 2 -254 54
-109 161 -177 281 -177 l60 0 0 38 c0 53 -18 72 -70 79 -135 17 -212 137 -166
258 27 69 105 125 176 125 34 0 91 -22 121 -47 56 -47 69 -91 69 -236 0 -137
9 -171 52 -201 12 -9 33 -16 46 -16 l24 0 -4 193 c-3 187 -4 193 -31 249 -38
77 -103 133 -185 158 -66 21 -92 23 -152 11z"/>
<path d="M4505 2622 c-62 -21 -114 -60 -150 -111 -46 -68 -55 -118 -55 -313
l0 -178 23 0 c12 0 33 7 45 16 43 30 52 64 52 206 0 119 3 139 23 178 25 52
74 88 129 96 l38 7 0 58 c0 58 -1 59 -27 59 -16 -1 -51 -8 -78 -18z"/>
</g>
</svg>
